HIERARCHY
ROOT hip
{
  OFFSET 0 0 0
  CHANNELS 6 Xposition Yposition Zposition Zrotation Yrotation Xrotation
  JOINT abdomen
  {
    OFFSET 0 20.6881 -0.73152
    CHANNELS 3 Zrotation Xrotation Yrotation
    JOINT chest
    {
      OFFSET 0 11.7043 -0.48768
      CHANNELS 3 Zrotation Xrotation Yrotation
      JOINT neck
      {
        OFFSET 0 22.1894 -2.19456
        CHANNELS 3 Zrotation Xrotation Yrotation
        JOINT head
        {
          OFFSET -0.24384 7.07133 1.2192
          CHANNELS 3 Zrotation Xrotation Yrotation
          JOINT leftEye
          {
            OFFSET 4.14528 8.04674 8.04672
            CHANNELS 3 Zrotation Xrotation Yrotation
            End Site
            {
              OFFSET 1 0 0
            }
          }
          JOINT rightEye
          {
            OFFSET -3.6576 8.04674 8.04672
            CHANNELS 3 Zrotation Xrotation Yrotation
            End Site
            {
              OFFSET 1 0 0
            }
          }
        }
      }
      JOINT rCollar
      {
        OFFSET -2.68224 19.2634 -4.8768
        CHANNELS 3 Zrotation Xrotation Yrotation
        JOINT rShldr
        {
          OFFSET -8.77824 -1.95073 1.46304
          CHANNELS 3 Zrotation Xrotation Yrotation
          JOINT rForeArm
          {
            OFFSET -28.1742 -1.7115 0.48768
            CHANNELS 3 Zrotation Xrotation Yrotation
            JOINT rHand
            {
              OFFSET -22.5879 0.773209 7.07136
              CHANNELS 3 Zrotation Xrotation Yrotation
              JOINT rThumb1
              {
                OFFSET -1.2192 -0.487915 3.41376
                CHANNELS 3 Zrotation Xrotation Yrotation
                JOINT rThumb2
                {
                  OFFSET -3.37035 -0.52449 3.41376
                  CHANNELS 3 Zrotation Xrotation Yrotation
                  End Site
                  {
                    OFFSET -1.78271 -1.18214 1.43049
                  }
                }
              }
              JOINT rIndex1
              {
                OFFSET -7.75947 0.938293 5.60832
                CHANNELS 3 Zrotation Xrotation Yrotation
                JOINT rIndex2
                {
                  OFFSET -2.54057 -0.884171 1.56538
                  CHANNELS 3 Zrotation Xrotation Yrotation
                  End Site
                  {
                    OFFSET -1.62519 -0.234802 1.16502
                  }
                }
              }
              JOINT rMid1
              {
                OFFSET -8.24714 1.18213 3.41376
                CHANNELS 3 Zrotation Xrotation Yrotation
                JOINT rMid2
                {
                  OFFSET -3.10165 -0.590103 1.0647
                  CHANNELS 3 Zrotation Xrotation Yrotation
                  End Site
                  {
                    OFFSET -2.48547 -0.328903 0.83742
                  }
                }
              }
              JOINT rRing1
              {
                OFFSET -8.82822 0.546677 1.51678
                CHANNELS 3 Zrotation Xrotation Yrotation
                JOINT rRing2
                {
                  OFFSET -2.60934 -0.819778 -0.0198488
                  CHANNELS 3 Zrotation Xrotation Yrotation
                  End Site
                  {
                    OFFSET -2.33842 -0.294052 0.168128
                  }
                }
              }
              JOINT rPinky1
              {
                OFFSET -8.27202 -0.0477905 -0.4584
                CHANNELS 3 Zrotation Xrotation Yrotation
                JOINT rPinky2
                {
                  OFFSET -1.82734 -0.647385 -0.700984
                  CHANNELS 3 Zrotation Xrotation Yrotation
                  End Site
                  {
                    OFFSET -1.69225 -0.51767 -0.607171
                  }
                }
              }
            }
          }
        }
      }
      JOINT lCollar
      {
        OFFSET 2.68224 19.2634 -4.8768
        CHANNELS 3 Zrotation Xrotation Yrotation
        JOINT lShldr
        {
          OFFSET 8.77824 -1.95073 1.46304
          CHANNELS 3 Zrotation Xrotation Yrotation
          JOINT lForeArm
          {
            OFFSET 28.1742 -1.7115 0.48768
            CHANNELS 3 Zrotation Xrotation Yrotation
            JOINT lHand
            {
              OFFSET 22.5879 0.773209 7.07136
              CHANNELS 3 Zrotation Xrotation Yrotation
              JOINT lThumb1
              {
                OFFSET 1.2192 -0.487915 3.41376
                CHANNELS 3 Zrotation Xrotation Yrotation
                JOINT lThumb2
                {
                  OFFSET 3.37035 -0.52449 3.41376
                  CHANNELS 3 Zrotation Xrotation Yrotation
                  End Site
                  {
                    OFFSET 1.78271 -1.18214 1.43049
                  }
                }
              }
              JOINT lIndex1
              {
                OFFSET 7.75947 0.938293 5.60832
                CHANNELS 3 Zrotation Xrotation Yrotation
                JOINT lIndex2
                {
                  OFFSET 2.54057 -0.884171 1.56538
                  CHANNELS 3 Zrotation Xrotation Yrotation
                  End Site
                  {
                    OFFSET 1.62519 -0.234802 1.16502
                  }
                }
              }
              JOINT lMid1
              {
                OFFSET 8.24714 1.18213 3.41376
                CHANNELS 3 Zrotation Xrotation Yrotation
                JOINT lMid2
                {
                  OFFSET 3.10165 -0.590103 1.0647
                  CHANNELS 3 Zrotation Xrotation Yrotation
                  End Site
                  {
                    OFFSET 2.48547 -0.328903 0.83742
                  }
                }
              }
              JOINT lRing1
              {
                OFFSET 8.82822 0.546677 1.51678
                CHANNELS 3 Zrotation Xrotation Yrotation
                JOINT lRing2
                {
                  OFFSET 2.60934 -0.819778 -0.0198488
                  CHANNELS 3 Zrotation Xrotation Yrotation
                  End Site
                  {
                    OFFSET 2.33842 -0.294052 0.168128
                  }
                }
              }
              JOINT lPinky1
              {
                OFFSET 8.27202 -0.0477905 -0.4584
                CHANNELS 3 Zrotation Xrotation Yrotation
                JOINT lPinky2
                {
                  OFFSET 1.82734 -0.647385 -0.700984
                  CHANNELS 3 Zrotation Xrotation Yrotation
                  End Site
                  {
                    OFFSET 1.69225 -0.51767 -0.607171
                  }
                }
              }
            }
          }
        }
      }
    }
  }
  JOINT rButtock
  {
    OFFSET -8.77824 4.35084 1.2192
    CHANNELS 3 Zrotation Xrotation Yrotation
    JOINT rThigh
    {
      OFFSET 0 -1.70687 -2.19456
      CHANNELS 3 Zrotation Xrotation Yrotation
      JOINT rShin
      {
        OFFSET 0 -36.8199 0.73152
        CHANNELS 3 Zrotation Xrotation Yrotation
        JOINT rFoot
        {
          OFFSET 0.73152 -45.1104 -5.12064
          CHANNELS 3 Zrotation Xrotation Yrotation
          End Site
          {
            OFFSET -1.1221 -3.69964 12.103
          }
        }
      }
    }
  }
  JOINT lButtock
  {
    OFFSET 8.77824 4.35084 1.2192
    CHANNELS 3 Zrotation Xrotation Yrotation
    JOINT lThigh
    {
      OFFSET 0 -1.70687 -2.19456
      CHANNELS 3 Zrotation Xrotation Yrotation
      JOINT lShin
      {
        OFFSET 0 -36.8199 0.73152
        CHANNELS 3 Zrotation Xrotation Yrotation
        JOINT lFoot
        {
          OFFSET -0.73152 -45.1104 -5.12064
          CHANNELS 3 Zrotation Xrotation Yrotation
          End Site
          {
            OFFSET 1.1221 -3.69964 12.103
          }
        }
      }
    }
  }
}
MOTION
Frames:	6
Frame Time:	0.00833333
-7.79142 85.1388 130.216 0.0 0.0 0.0 0.410575 -0.00336393 0.0117802 0.113455 -0.00539468 0.0196586 7.39417e-15 7.95139e-16 4.96962e-17 2.21955e-14 9.54166e-15 1.56854e-16 -0.0 0.0 0.0 -0.0 0.0 0.0 3.82533e-15 -1.32005e-17 1.98785e-16 7.95106e-14 -9.93923e-17 1.78906e-15 1.33399e-12 -4.06912e-13 1.59028e-14 1.52895e-11 3.61788e-13 1.17681e-13 3.6057e-11 -1.01111e-13 3.08514e-13 6.2251e-11 -1.78111e-13 5.27972e-13 3.60599e-11 -1.01778e-13 3.02153e-13 7.73091 5.47488 0.417314 3.60572e-11 -1.01181e-13 3.05333e-13 2.90554 0.965183 0.102902 3.60637e-11 -1.01082e-13 3.02153e-13 10.2786 0.731801 0.0259123 3.60472e-11 -9.70069e-14 3.02153e-13 2.22167 -0.733487 -0.20892 3.62934e-15 -1.28123e-17 -9.93923e-17 7.63765e-14 -4.9075e-16 0.0 1.33688e-12 3.90413e-13 -3.18055e-15 1.52859e-11 -4.48881e-13 1.52667e-13 3.60645e-11 -1.27055e-13 2.95792e-13 6.2288e-11 -2.16278e-13 5.1366e-13 3.60619e-11 -1.28415e-13 3.02153e-13 -7.73091 5.47488 -0.417314 3.60652e-11 -1.2752e-13 2.98972e-13 -2.90554 0.965183 -0.102902 3.60588e-11 -1.27222e-13 3.01358e-13 -10.2786 0.731801 -0.0259123 3.60673e-11 -1.24042e-13 2.98972e-13 -2.22167 -0.733487 0.20892 -2.03217e-16 0.0 -3.88251e-19 0.770899 -4.17179 -0.0656917 -0.00265697 2.00547 -0.0182891 -0.462135 2.16691 0.0961419 2.03217e-16 0.0 3.88251e-19 -0.14294 -2.55997 0.0260621 0.00716107 -0.914059 0.0621531 0.453469 3.47456 -0.121181
-7.73244 83.538 125.128 177.28 -0.5491 -154.729 -1.77561 -7.01774 -0.71463 1.27338 3.65281 -0.270381 -0.621806 4.38782 0.521723 0.274194 -6.14971 1.21853 -0.0 0.0 0.0 -0.0 0.0 0.0 1.49909e-14 1.96705e-14 1.69297e-14 22.6469 2.9168 -1.62067 -4.89452 -2.37705 7.47131 0.00284573 -1.18558 -0.166494 -3.94627e-10 3.24104e-10 -1.50167e-10 -6.82515e-10 5.6043e-10 -2.60643e-10 -3.94623e-10 3.24103e-10 -1.50177e-10 7.73091 5.47488 0.417314 -3.94628e-10 3.24104e-10 -1.5017e-10 2.90554 0.965183 0.102902 -3.94621e-10 3.24104e-10 -1.50174e-10 10.2786 0.731801 0.0259123 -3.94635e-10 3.24108e-10 -1.50173e-10 2.22167 -0.733487 -0.20892 1.49031e-14 1.96702e-14 1.66758e-14 -20.402 5.96838 -1.37257 5.18982 -2.58997 -7.8385 -0.00572723 -1.88322 0.264265 -1.71073e-10 -2.58499e-10 2.65365e-10 -2.96274e-10 -4.49199e-10 4.5922e-10 -1.71078e-10 -2.585e-10 2.65374e-10 -7.73091 5.47488 -0.417314 -1.71072e-10 -2.58499e-10 2.65371e-10 -2.90554 0.965183 -0.102902 -1.71081e-10 -2.585e-10 2.65372e-10 -10.2786 0.731801 -0.0259123 -1.71071e-10 -2.58497e-10 2.65371e-10 -2.22167 -0.733487 0.20892 -2.03217e-16 0.0 -3.88251e-19 0.685361 -11.793 1.66134 0.00335824 4.80517 0.0483109 -0.636457 -2.17213 -1.08471 2.03217e-16 0.0 3.88251e-19 -1.375 -9.18641 -1.01922 0.00799611 0.998093 0.0396887 0.508291 2.25146 -1.97999
-7.7093 83.5391 125.1 177.413 -0.4178 -154.738 -4.28088 -14.4163 -1.522 2.54247 7.52012 -0.58184 -1.37475 9.03938 1.14614 0.808442 -12.7586 2.66216 -0.0 0.0 0.0 -0.0 0.0 0.0 2.77624e-14 3.97521e-14 3.52315e-14 46.7655 6.00408 -3.34722 -9.39658 -4.75194 15.4043 -0.00166262 -2.44727 -0.34392 -8.71973e-10 6.71978e-10 -3.07549e-10 -1.50797e-09 1.16198e-09 -5.33859e-10 -8.71967e-10 6.71976e-10 -3.07562e-10 7.73091 5.47488 0.417314 -8.71974e-10 6.71978e-10 -3.07552e-10 2.90554 0.965183 0.102902 -8.71968e-10 6.71979e-10 -3.07556e-10 10.2786 0.731801 0.0259123 -8.7198e-10 6.71982e-10 -3.07554e-10 2.22167 -0.733487 -0.20892 2.77936e-14 3.97509e-14 3.50265e-14 -41.6496 12.1984 -2.88161 9.91666 -5.16922 -16.1811 0.0083547 -3.97229 0.558481 -3.98585e-10 -5.53466e-10 5.46989e-10 -6.90131e-10 -9.61698e-10 9.46577e-10 -3.98592e-10 -5.53466e-10 5.47001e-10 -7.73091 5.47488 -0.417314 -3.98584e-10 -5.53466e-10 5.46999e-10 -2.90554 0.965183 -0.102902 -3.98595e-10 -5.53467e-10 5.46998e-10 -10.2786 0.731801 -0.0259123 -3.98585e-10 -5.53465e-10 5.46999e-10 -2.22167 -0.733487 0.20892 -2.03217e-16 0.0 -3.88251e-19 1.12546 -19.8225 3.62999 0.00264583 7.76734 0.119506 -1.01642 -6.75596 -2.34814 2.03217e-16 0.0 3.88251e-19 -2.94764 -16.1801 -2.18937 0.0105015 3.01572 0.0159988 0.480277 0.95945 -3.93669
-7.69856 83.5378 125.073 177.448 -0.3695 -154.733 -6.71371 -21.0326 -2.30503 3.70608 10.9681 -0.864608 -2.11062 13.159 1.60267 1.64273 -18.4148 3.83098 -0.0 0.0 0.0 -0.0 0.0 0.0 3.73221e-14 5.90379e-14 5.03915e-14 68.44 8.72225 -4.91265 -12.866 -6.64717 22.5544 -0.0121672 -3.55661 -0.500338 -1.256e-09 9.72513e-10 -4.51118e-10 -2.17205e-09 1.68165e-09 -7.82985e-10 -1.25599e-09 9.72512e-10 -4.51134e-10 7.73091 5.47488 0.417314 -1.256e-09 9.72514e-10 -4.51122e-10 2.90554 0.965183 0.102902 -1.25599e-09 9.72515e-10 -4.51126e-10 10.2786 0.731801 0.0259123 -1.256e-09 9.72518e-10 -4.51123e-10 2.22167 -0.733487 -0.20892 3.74505e-14 5.90362e-14 5.02261e-14 -60.3121 17.863 -4.3032 13.4959 -7.18946 -23.6888 0.0351489 -5.64917 0.796235 -5.85348e-10 -7.75242e-10 7.95503e-10 -1.0134e-09 -1.34717e-09 1.37663e-09 -5.85358e-10 -7.75243e-10 7.95518e-10 -7.73091 5.47488 -0.417314 -5.85348e-10 -7.75243e-10 7.95515e-10 -2.90554 0.965183 -0.102902 -5.85361e-10 -7.75244e-10 7.95513e-10 -10.2786 0.731801 -0.0259123 -5.85349e-10 -7.75243e-10 7.95515e-10 -2.22167 -0.733487 0.20892 -2.03217e-16 0.0 -3.88251e-19 2.03902 -26.9383 5.62142 -0.00442132 10.4045 0.184005 -1.52876 -10.8315 -3.50649 2.03217e-16 0.0 3.88251e-19 -4.61609 -22.4096 -3.32162 0.0141655 4.8224 -0.0052609 0.380258 -0.189793 -5.6935
-7.68268 83.5352 125.051 177.51 -0.0167 -154.648 -8.5542 -25.7064 -2.897 4.52512 13.3689 -1.06201 -2.58032 15.9551 1.59309 2.49718 -21.7351 4.09767 -0.0 0.0 0.0 -0.0 0.0 0.0 3.88529e-14 7.63345e-14 5.76972e-14 83.6479 10.5446 -6.02615 -15.0124 -7.80102 27.6141 -0.0225745 -4.28521 -0.603383 -1.40671e-09 1.1547e-09 -5.60156e-10 -2.43268e-09 1.9966e-09 -9.71884e-10 -1.4067e-09 1.1547e-09 -5.60172e-10 7.73091 5.47488 0.417314 -1.40671e-09 1.1547e-09 -5.60159e-10 2.90554 0.965183 0.102902 -1.4067e-09 1.15471e-09 -5.60163e-10 10.2786 0.731801 0.0259123 -1.40671e-09 1.15471e-09 -5.60159e-10 2.22167 -0.733487 -0.20892 3.90236e-14 7.63327e-14 5.75482e-14 -73.1442 22.1537 -5.33819 15.6529 -8.36869 -28.9433 0.0488674 -6.29617 0.888484 -6.70239e-10 -8.14044e-10 9.6124e-10 -1.16019e-09 -1.41505e-09 1.66344e-09 -6.70251e-10 -8.14044e-10 9.61256e-10 -7.73091 5.47488 -0.417314 -6.7024e-10 -8.14045e-10 9.61253e-10 -2.90554 0.965183 -0.102902 -6.70254e-10 -8.14046e-10 9.6125e-10 -10.2786 0.731801 -0.0259123 -6.70241e-10 -8.14046e-10 9.61253e-10 -2.22167 -0.733487 0.20892 -2.03217e-16 0.0 -3.88251e-19 3.01432 -31.86 7.21322 -0.0132438 12.2292 0.229512 -1.98504 -13.6552 -4.33947 2.03217e-16 0.0 3.88251e-19 -5.95278 -26.757 -4.16357 0.0175778 6.10172 -0.0203587 0.266373 -0.989291 -6.95096
-7.71313 83.5313 124.98 177.306 -0.1107 -154.679 -9.36006 -27.6873 -3.11511 4.82024 14.3058 -1.12825 -2.57516 16.8762 0.801934 3.17704 -21.5935 2.80886 -0.0 0.0 0.0 -0.0 0.0 0.0 3.00877e-14 1.08737e-13 5.54594e-14 89.6489 11.1131 -6.47811 -15.8275 -8.23497 29.6824 -0.0260502 -4.46486 -0.628861 -1.25782e-09 1.27936e-09 -7.17508e-10 -2.17514e-09 2.2118e-09 -1.24361e-09 -1.25781e-09 1.27936e-09 -7.1752e-10 7.73091 5.47488 0.417314 -1.25782e-09 1.27936e-09 -7.1751e-10 2.90554 0.965183 0.102902 -1.25782e-09 1.27937e-09 -7.17513e-10 10.2786 0.731801 0.0259123 -1.25782e-09 1.27937e-09 -7.17508e-10 2.22167 -0.733487 -0.20892 3.02132e-14 1.08736e-13 5.52916e-14 -78.1173 24.641 -5.70663 16.4058 -8.75014 -30.9537 0.0278302 -5.34125 0.752391 -6.5978e-10 -5.15934e-10 1.06497e-09 -1.14128e-09 -8.98335e-10 1.8429e-09 -6.59792e-10 -5.15933e-10 1.06498e-09 -7.73091 5.47488 -0.417314 -6.59781e-10 -5.15935e-10 1.06498e-09 -2.90554 0.965183 -0.102902 -6.59795e-10 -5.15936e-10 1.06497e-09 -10.2786 0.731801 -0.0259123 -6.59782e-10 -5.15936e-10 1.06498e-09 -2.22167 -0.733487 0.20892 -2.03217e-16 0.0 -3.88251e-19 3.46402 -33.7916 7.89373 -0.0182946 12.9152 0.246874 -2.1834 -14.7348 -4.66822 2.03217e-16 0.0 3.88251e-19 -6.53451 -28.5033 -4.44237 0.019145 6.644 -0.0267341 0.206561 -1.29659 -7.52539
